<svg width="100" height="100" viewBox="0 0 100 100" fill="none" xmlns="http://www.w3.org/2000/svg">
  <g transform="rotate(-90 50 50)">
    <path d="M50 95C25.1472 95 5 74.8528 5 50C5 25.1472 25.1472 5 50 5C68.3283 5 84.1481 16.0368 91.1305 31.8488C94.887 40.3551 95 50 95 50C95 50 85 45 75 45C65 45 55 55 55 65C55 75 65 85 75 85C85 85 95 75 95 65" stroke="white" stroke-width="2" stroke-linecap="round" stroke-linejoin="round"/>
    <path d="M50 5C50 5 55 15 55 25C55 35 45 45 35 45C25 45 15 35 15 25C15 15 25 5 35 5" stroke="white" stroke-width="1.5" opacity="0.6"/>
    <path d="M91 32C85 35 75 35 70 45" stroke="white" stroke-width="1.5" opacity="0.6"/>
  </g>
</svg>
