<svg xmlns="http://www.w3.org/2000/svg" viewBox="0 0 6287 1409" fill="#fff">
<path d="M5691.67 1389.43H5906.73L5957.75 806.238L6287 19.5694H6077.72L5887.05 522.481H5883.04L5780.29 19.5694H5551.44L5742.81 806.238L5691.67 1389.43ZM5059.46 935.443L5212.65 258.293H5216.54L5253.19 935.443H5059.46ZM4755.67 1389.43H4955.17L5017.75 1121.35H5262.26V1117.46L5277.58 1389.43H5492.76L5389.88 19.5694H5098.47L4755.67 1389.43ZM4281.95 1193.74L4367.62 215.264H4477.1C4512.37 215.264 4538.53 225.717 4555.58 246.622C4572.66 267.488 4579.14 301.322 4575.02 348.36L4513.27 1060.99C4509.27 1108.15 4496.77 1141.87 4476.03 1162.73C4464.94 1173.43 4451.77 1181.73 4437.34 1187.12C4422.9 1192.51 4407.52 1194.89 4392.13 1194.09L4281.95 1193.74ZM4049.69 1389.43H4378.35C4485.19 1389.43 4567.91 1360.74 4626.52 1303.37C4685.12 1246 4719.22 1161.83 4728.8 1050.86L4789.37 358.144C4799.03 247.251 4779.63 163.236 4731.16 106.099C4682.69 48.9629 4605.03 20.2768 4498.19 20.041H4169.53L4049.69 1389.43ZM3630.89 1213.31C3556.49 1213.31 3523.26 1168.31 3531.19 1078.32L3596.59 330.676C3604.45 240.767 3645.54 195.773 3719.86 195.694C3794.17 195.616 3827.4 240.61 3819.55 330.676L3754.15 1078.32C3746.29 1168.23 3705.2 1213.23 3630.89 1213.31ZM3613.8 1409C3719.38 1409 3802.85 1378.98 3864.21 1318.93C3925.56 1258.89 3960.92 1174.09 3970.27 1064.53L4033.31 344.469C4043.05 234.833 4022.35 150.032 3971.21 90.0666C3920.07 30.1008 3841.98 0.0785922 3736.94 0C3631.36 0 3547.89 30.0222 3486.53 90.0666C3425.18 150.111 3389.82 234.912 3380.48 344.469L3317.2 1064.53C3307.61 1174.56 3328.23 1259.36 3379.06 1318.93C3429.89 1378.51 3508.14 1408.53 3613.8 1409ZM2851.02 1389.43H3066.2L3168.84 215.264H3393.79L3410.88 19.5694H2745.67L2728.59 215.264H2953.54L2851.02 1389.43ZM1691.12 1389.43H1882.73L1970.17 389.031H1974.17L2144.69 1389.43H2365.64L2485.72 19.5694H2293.99L2222.34 839.482H2218.46L2080.82 19.5694H1810.85L1691.12 1389.43ZM1009.3 1389.43H1596.26L1613.35 1193.74H1241.68L1278.45 772.993H1573.87L1590.84 577.652H1295.53L1327.23 215.618H1698.9L1715.99 19.9231H1129.14L1009.3 1389.43ZM0 1389.43H187.837L278.456 352.014H282.816L348.571 1389.43H528.159L775.623 352.014H779.512L688.775 1389.43H892.049L1011.77 19.5694H704.683L481.966 1000.05H478.077L426.934 19.5694H119.843L0 1389.43Z"/>
</svg>
