<svg width="280" height="80" viewBox="0 0 280 80" fill="none" xmlns="http://www.w3.org/2000/svg">
<path d="M89.6082 37.23C85.3747 38.4006 83.2548 38.9874 79.0181 39.9363V41.6219C79.9675 41.4752 80.4781 41.3285 81.4306 41.11L85.4463 57.3664C85.8852 59.1987 87.2704 61.468 89.2378 61.468C89.9693 61.468 92.5281 60.5878 93.3313 57.5131C92.4534 63.5157 91.946 66.5934 89.3841 69.8896C89.4619 69.8147 89.5335 69.5962 89.5335 69.4495C89.5335 66.3749 88.5094 64.2492 86.6105 64.2492C84.419 64.2492 82.4485 66.8119 82.4485 69.9583C82.4485 72.4523 84.0548 74.6467 86.0253 74.6467C90.1156 74.6467 92.8923 68.6411 93.9134 65.6382C96.9796 56.1896 96.6901 42.0558 97.0543 36.5651C97.7858 36.3466 98.2185 36.1999 98.9501 35.9065L99.0217 34.1492C96.1733 35.173 94.785 35.6131 91.9398 36.4934V38.2476C92.9608 37.8824 93.4713 37.7357 94.4955 37.4454C94.4208 42.2774 94.2776 45.942 94.1313 48.72C93.8387 54.2887 93.2503 56.1179 92.2324 56.1179C91.6472 56.1179 91.1367 55.3094 90.7693 53.5551L87.6315 39.4962C88.4347 39.2777 88.7989 39.2028 89.602 38.9094V37.2238L89.6082 37.23ZM190.466 40.8915C188.132 40.8915 186.233 33.7122 186.233 24.0482C186.233 14.3842 188.424 6.10613 191.559 6.10613C192.947 6.10613 194.411 6.91146 194.703 9.25567C192.073 10.5011 191.341 12.7704 191.341 14.8961C191.341 18.3359 193.169 20.4585 195.357 20.4585C197.545 20.4585 199.301 17.5306 199.301 14.2344C199.301 7.42338 195.211 4.34876 191.777 4.34876C182.429 4.34876 179.873 18.0425 179.873 25.1469C179.873 31.446 182.143 42.652 189.953 42.652C194.118 42.652 199.519 36.8648 199.519 27.7127L193.604 28.1497C193.604 35.7692 192.144 40.8946 190.463 40.8946M12.9248 50.3369C12.9248 54.3636 11.2469 57.4413 9.27336 57.4413C9.12705 57.4413 8.98074 57.4413 8.75973 57.3695V41.9902C11.1006 42.3585 12.9217 46.0918 12.9217 50.3401M2.40939 40.9633V74.3596L0 73.9194V75.7517C3.43043 76.4103 5.2577 76.632 8.76284 77.2188C9.34807 77.2906 9.93329 77.3624 10.5154 77.3624C15.2657 77.3624 18.7677 74.3596 18.7677 68.6473C18.7677 64.1087 16.5046 60.8125 13.2921 58.9084C16.212 57.9564 18.1825 55.3188 18.1825 50.9987C18.1825 43.9692 14.0953 41.3316 8.83755 40.3795L0 38.7658V40.4857L2.40939 40.9633ZM13.0026 67.9138C13.0026 72.0871 11.2469 75.3834 9.13016 75.3834H8.76284V59.1987C11.1037 59.5639 12.9248 63.4439 13.0026 67.9138ZM199.958 6.10613L202.37 5.95943V39.3526L199.958 39.4993V41.2567C208.356 40.7448 218.943 41.6937 218.943 30.7124C218.943 26.1676 216.683 23.093 213.321 21.7758C216.316 20.3118 218.361 17.3808 218.361 13.1325C218.361 7.12997 214.277 3.83372 209.234 3.83372C205.362 3.83372 203.609 4.05535 199.958 4.27385V6.10613ZM213.029 30.7842C213.029 35.2541 211.13 38.9125 208.721 38.9874V22.8776C211.273 22.8776 213.029 26.3175 213.029 30.7874M213.029 13.2105C213.029 17.4588 211.13 20.8986 208.721 21.0485V5.66601C211.273 5.66601 213.029 8.96225 213.029 13.2074M40.4585 44.993H42.7932V77.9461H40.3838V79.7066C44.692 79.7066 46.8835 79.7066 51.1949 79.4818V77.7276C50.2424 77.7276 49.8782 77.7994 48.9287 77.7994V62.2765H50.2424L54.4074 77.5091L52.5833 77.6558V79.4132C59.5219 78.9012 66.5322 78.2395 73.611 76.9222V75.1649C72.5183 75.3865 72.0078 75.4583 70.9121 75.605V64.1837C76.3846 63.3034 80.7707 57.5943 80.7707 50.7802C80.7707 44.6996 77.1908 41.1849 72.5931 41.1849C72.0825 41.1849 71.5689 41.2598 71.0584 41.3316C67.6996 41.8435 66.0186 42.0651 62.5851 42.4303V44.1877L64.8512 43.8943V76.4853C63.9765 76.632 63.3913 76.7038 60.543 76.9972L56.9631 63.4501C56.3094 60.8874 54.5569 59.5702 52.8759 59.205L59.0114 44.4842L61.2029 44.2657V42.5052C58.3546 42.7987 56.8915 42.8705 54.0463 43.0172V44.7777L55.9421 44.7027L49.956 59.205H48.9318V44.9993H51.2696V43.167C48.7139 43.2388 46.9614 43.3137 44.9878 43.3137C43.671 43.3137 42.2142 43.3137 40.4616 43.2388V44.9993L40.4585 44.993ZM75.0024 52.0943C75.0024 57.4413 73.1752 62.0548 70.9152 62.4232V43.0921H71.2109C73.3246 43.0921 75.0056 46.8971 75.0056 52.0974M40.3153 61.4742C40.3153 54.6601 38.2732 42.0651 29.6567 42.0651C22.0581 42.0651 20.1623 54.0764 20.1623 60.2257C20.1623 67.0367 21.697 80 30.7524 80C39.0795 80 40.3184 67.6953 40.3184 61.4711M34.1144 61.2495C34.1144 70.8417 32.7976 78.2364 30.2419 78.2364C27.6862 78.2364 26.4442 70.1799 26.4442 60.8094C26.4442 51.4388 27.6893 43.8912 30.2419 43.8912C32.7945 43.8912 34.1144 51.9476 34.1144 61.2495ZM260.793 7.4983L264.006 7.8635L257.512 40.5231L254.661 40.3015V42.0589L262.113 42.7175V40.9601L259.919 40.7416L261.161 34.6642L269.998 35.5413L271.162 41.9122L269.12 41.6937V43.451L280 44.7714V43.0109L277.513 42.6488L270.652 6.68984C266.705 6.24972 264.734 6.03122 260.79 5.7378V7.49517L260.793 7.4983ZM242.972 41.2598C247.427 41.4783 249.69 41.6968 254.147 42.0651V40.2328C253.195 40.2328 252.613 40.1579 251.735 40.0861V6.68984L252.538 6.76476L257.431 15.408L258.527 15.4798L257.36 5.37259C250.275 4.71397 243.336 4.34876 239.685 4.27385L238.517 14.2312L239.613 14.3062L244.507 6.17793H245.384V39.5742C244.363 39.5742 243.925 39.4993 242.972 39.4306V41.2598ZM265.612 12.4052L269.416 32.398L261.814 31.6645L265.612 12.4052ZM99.9057 35.6194L102.022 34.8109V67.6204L99.6847 68.4257V70.1831C104.214 68.6442 106.477 67.842 111.078 65.9379V64.1805L108.301 65.2762V32.2513C109.179 31.8861 109.764 31.6645 110.642 31.2275L115.679 39.209L116.703 38.6971L115.458 27.2008C109.251 30.2754 106.11 31.5958 99.9026 33.8682V35.6225L99.9057 35.6194ZM233.406 16.6504C232.746 16.5817 232.382 16.5817 231.653 16.5817V20.3867C230.34 20.3867 229.683 20.3149 228.366 20.3149V5.81272C229.462 5.81272 230.34 5.81272 231.507 5.88451L236.108 14.1595L237.282 14.2312L236.108 4.19893C232.089 3.90552 228.002 3.90552 223.912 3.90552C222.523 3.90552 221.06 3.90552 219.675 3.98043V5.7378H222.087V39.1341H219.675V40.8915C225.3 40.8915 230.85 40.9633 236.401 41.2567L237.714 29.2454C237.282 29.2454 237.057 29.2454 236.618 29.1736L231.432 39.2808L228.366 39.1341V23.3895C229.683 23.4613 230.34 23.4613 231.653 23.4613V27.3444C232.382 27.3444 232.746 27.3444 233.481 27.4193L233.406 16.6504Z" fill="white"/>
<path d="M172.346 19.8935C170.447 18.6918 168.284 17.746 165.7 17.0874C162.481 16.2633 159.642 16.1603 158.983 16.154C159.085 16.8782 159.141 17.7429 159.02 18.492C158.87 19.4066 158.581 20.2213 158.179 20.9548C159.923 22.4438 167.443 29.1361 170.949 36.2873C173.952 31.7176 174.475 27.1415 174.376 24.0232C174.367 23.0493 173.921 20.8955 172.34 19.8967M154.298 9.67394C156.277 10.8975 157.765 12.5644 158.534 14.4466C166.413 14.431 172.197 17.8989 173.809 19.4035C173.934 19.5034 174.037 19.444 173.965 19.3098C171.114 13.4478 167.272 9.03092 161.14 5.52555C161.009 5.44439 160.716 5.25398 160.374 5.31953C159.87 5.41942 158.889 5.59734 157.862 6.24348C156.358 7.18927 154.774 9.04341 154.294 9.67394M146.325 71.9123C146.08 72.0965 146.276 72.1652 146.403 72.1496C155.49 71.082 163.397 67.1584 168.826 60.4785C168.95 60.3162 168.85 60.2662 168.748 60.3443C161.053 66.3312 150.901 66.8556 150.799 66.865C149.563 69.4745 147.754 70.9665 146.322 71.9123M169.8 37.8668C169.099 36.4777 168.303 35.0918 167.419 33.7059C164.147 28.5805 158.659 23.7891 157.059 22.4469C155.683 23.8827 153.719 24.7942 151.378 25.1313C151.365 25.1313 151.356 25.1376 151.343 25.1407C152.825 32.0734 153.591 39.3089 153.691 46.0418C165.314 44.4187 169.398 38.4755 169.803 37.8668M157.868 47.1968C155.465 47.8055 153.731 47.9865 153.712 47.9896C153.712 57.329 152.975 61.4368 151.53 65.1232C151.568 65.1232 151.602 65.1138 151.639 65.1138C160.399 64.4396 166.715 60.5284 169.778 57.7566C170.55 57.0605 172.1 55.4904 172.536 53.1119C172.742 51.9975 172.879 50.8239 172.879 49.6471C172.879 46.276 172.116 42.9454 170.6 39.543C166.762 44.2657 161.504 46.2759 157.868 47.1968ZM150.914 23.3178C150.933 23.3178 150.954 23.3178 150.973 23.3115C154.266 22.8183 156.912 21.0828 157.298 17.9489C157.815 13.7568 154.341 10.2077 149.675 9.13081C149.364 9.06214 147.798 8.73751 146.073 8.96849C146.615 10.0142 147.144 11.1629 147.642 12.4489C148.956 15.8575 150.027 19.5377 150.911 23.3178M175.537 22.9213C175.49 22.8152 175.366 22.7902 175.388 22.9276C175.752 25.2999 176.029 31.2806 171.705 37.9854C174.961 45.8327 174.41 51.0049 173.806 53.1775C173.775 53.3023 173.872 53.4209 174.018 53.1556C174.513 52.266 175.235 50.6772 175.786 49.104C177.202 45.0617 178.155 40.7572 178.155 36.2187C178.155 31.4179 177.339 27.0198 175.54 22.9245M126.711 60.3786C127.411 56.9388 128.99 51.1735 132.588 43.8724C138.269 47.0157 145.793 48.9698 153.656 47.999C153.672 47.999 153.697 47.9959 153.715 47.9927C153.715 47.615 153.715 47.2498 153.715 46.8565C153.712 46.5912 153.697 46.3134 153.694 46.0481C153.65 46.0543 143.854 47.9584 133.472 42.1213C138.468 32.3824 142.973 25.7712 144.255 23.9483C144.262 23.9483 144.268 23.9545 144.268 23.9514C146.693 25.1063 149.326 25.4341 151.334 25.15C151.34 25.15 151.343 25.15 151.347 25.15C151.216 24.5351 151.06 23.9358 150.917 23.3271C146.568 23.942 139.433 20.5147 140.19 14.1719C140.52 11.4032 142.907 9.42422 146.076 8.97786C145.862 8.55959 145.641 8.16004 145.42 7.77923C143.219 8.11946 141.295 9.06838 139.994 10.4418C139.3 10.1265 135.374 8.44097 129.656 7.91969C127.464 7.71992 125.634 7.76986 123.9 8.06952C124.112 7.83229 128.336 4.07408 132.843 2.56642C135.471 1.6893 137.65 1.36779 138.985 1.21171C139.29 1.20235 139.776 1.13056 140.311 1.52386C141.771 2.54769 143.281 4.0772 145.423 7.7761C145.697 7.73553 148.483 7.03632 152.592 8.79057C155.378 5.15097 157.843 4.49235 158.905 4.43304C159.204 4.41431 159.085 4.28009 158.936 4.20205C153.908 1.55819 148 0.00683859 141.952 0.00683859C141.441 0.00683859 130.577 -0.523805 122.465 7.76362C122.241 7.99148 122.07 8.13507 121.87 8.36918C115.778 9.86123 113.957 12.9889 113.603 13.4915L113.799 13.6569C115.498 12.1617 118.017 10.6728 120.734 9.89556C115.159 18.1767 118.182 26.7545 118.278 27.0947C119.349 30.9466 122.876 37.6982 130.711 42.73C129.267 45.6704 126.577 51.367 124.98 59.4578C117.849 55.3032 114.866 51.4638 113.596 49.7657V51.6386C116.258 56.8171 124.591 61.2433 124.684 61.2932C124.407 64.7518 124.769 66.5716 125.123 67.8201C125.404 68.0574 126.197 68.5662 126.658 68.7566C126.478 67.7109 126.113 64.964 126.418 62.2109C136.99 67.4331 145.398 67.2739 150.808 66.8556C151.051 66.3593 151.378 65.5228 151.54 65.1138C151.512 65.1138 151.487 65.1201 151.459 65.1232C143.994 65.5165 136.006 64.9984 126.72 60.3661M122.658 9.52411C123.754 9.34307 124.977 9.16827 126.25 9.2026C133.877 9.40237 138.388 11.4157 139.029 11.7185C138.615 12.4364 138.344 13.2293 138.251 14.0752C138.145 14.9835 138.185 15.8294 138.31 16.6285C137.22 16.9344 133.889 17.9083 129.762 19.5533C125.509 21.2451 120.958 24.2199 119.604 25.1313C118.484 20.4741 118.838 14.662 122.661 9.52411M120.137 26.9854C120.753 26.5266 122.225 25.4872 124.513 24.198C128.087 22.1815 133.727 19.6813 137.97 18.4858C138.285 18.3984 138.528 18.3266 138.73 18.2641C139.474 20.265 140.853 21.7789 142.584 22.9088C141.102 24.9097 135.573 32.9692 131.576 40.9757C126.481 37.7014 121.565 32.0828 120.137 26.9854Z" fill="white"/>
</svg>
